[img]http://a.imageshack.us/img230/2987/emienmeburn2.png[/img]

[img]http://a.imageshack.us/img714/5838/eminemburn.png[/img]

[code]General
Complete name                    : Eminem ft Rihanna - Love The Way You Lie [KingPinVideos].mpg
Format                           : MPEG-PS
File size                        : 92.4 MiB
Duration                         : 4mn 28s
Overall bit rate                 : 2 882 Kbps
Writing library                  : encoded by TMPGEnc 4.0 XPress Version. 4.7.4.299

Video
ID                               : 224 (0xE0)
Format                           : MPEG Video
Format version                   : Version 1
Format settings, BVOP            : Yes
Format settings, Matrix          : Default
Duration                         : 4mn 28s
Bit rate mode                    : Variable
Bit rate                         : 2 575 Kbps
Nominal bit rate                 : 2 700 Kbps
Width                            : 384 pixels
Height                           : 208 pixels
Display aspect ratio             : 16:9
Frame rate                       : 29.970 fps
Resolution                       : 8 bits
Scan type                        : Progressive
Bits/(Pixel*Frame)               : 1.076
Stream size                      : 82.5 MiB (89%)
Writing library                  : TMPGEnc XPress 4.7.4.299

Audio
ID                               : 192 (0xC0)
Format                           : MPEG Audio
Format version                   : Version 1
Format profile                   : Layer 2
Duration                         : 4mn 28s
Bit rate mode                    : Constant
Bit rate                         : 192 Kbps
Channel(s)                       : 2 channels
Sampling rate                    : 48.0 KHz
Stream size                      : 6.15 MiB (7%)
[/code]